<?xml version="1.0" encoding="UTF-8" standalone="no"?>
<!-- Created with Inkscape (http://www.inkscape.org/) -->

<svg
   version="1.1"
   id="svg6864"
   xml:space="preserve"
   width="682.66669"
   height="682.66669"
   viewBox="0 0 682.66669 682.66669"
   xmlns="http://www.w3.org/2000/svg"
   xmlns:svg="http://www.w3.org/2000/svg"><defs
     id="defs6868"><clipPath
       clipPathUnits="userSpaceOnUse"
       id="clipPath6882"><path
         d="M 0,512 H 512 V 0 H 0 Z"
         id="path6880" /></clipPath></defs><g
     id="g6870"
     transform="matrix(1.3333333,0,0,-1.3333333,0,682.66667)"><g
       id="g6872"
       transform="translate(461,350.3418)"><path
         d="M 0,0 V -241.88 H -410 V 0 l 197.98,111.6 7.02,3.96 z"
         style="fill:#eef0f5;fill-opacity:1;fill-rule:nonzero;stroke:none"
         id="path6874" /></g><g
       id="g6876"><g
         id="g6878"
         clip-path="url(#clipPath6882)"><g
           id="g6884"
           transform="translate(461,350.3418)"><path
             d="m 0,0 v -241.88 h -410 v 22 h 373.16 c 7.64,0 13.84,6.2 13.84,13.84 v 181.93 c 0,3.83 -1.89,7.41 -5.04,9.57 l -183.98,126.14 7.02,3.96 z"
             style="fill:#dae1ea;fill-opacity:1;fill-rule:nonzero;stroke:none"
             id="path6886" /></g><path
           d="M 481,74.626 H 31 v 33.837 h 450 z"
           style="fill:#56788b;fill-opacity:1;fill-rule:nonzero;stroke:none"
           id="path6888" /><path
           d="M 481,74.626 H 31 v 16.918 h 450 z"
           style="fill:#415e6f;fill-opacity:1;fill-rule:nonzero;stroke:none"
           id="path6890" /><g
           id="g6892"
           transform="translate(504.5,364.6719)"><path
             d="M 0,0 -8.12,-14.42 -16.61,-29.49 -248.5,101.229 -480.39,-29.49 -488.88,-14.42 -497,0 -248.5,140.08 Z"
             style="fill:#ff4656;fill-opacity:1;fill-rule:nonzero;stroke:none"
             id="path6894" /></g><g
           id="g6896"
           transform="translate(496.3799,350.252)"><path
             d="M 0,0 -8.49,-15.07 -240.38,115.649 -472.27,-15.07 -480.76,0 -240.38,135.5 Z"
             style="fill:#d93c49;fill-opacity:1;fill-rule:nonzero;stroke:none"
             id="path6898" /></g><path
           d="M 144.767,144.824 H 88.534 v 56.264 h 56.233 z"
           style="fill:#f9d11f;fill-opacity:1;fill-rule:nonzero;stroke:none"
           id="path6900" /><path
           d="m 423.467,144.824 h -56.233 v 56.264 h 56.233 z"
           style="fill:#f9d11f;fill-opacity:1;fill-rule:nonzero;stroke:none"
           id="path6902" /><path
           d="M 144.767,236.107 H 88.534 v 56.264 h 56.233 z"
           style="fill:#f9d11f;fill-opacity:1;fill-rule:nonzero;stroke:none"
           id="path6904" /><path
           d="m 237.667,236.107 h -56.233 v 56.264 h 56.233 z"
           style="fill:#f9d11f;fill-opacity:1;fill-rule:nonzero;stroke:none"
           id="path6906" /><path
           d="m 330.567,236.107 h -56.233 v 56.264 h 56.233 z"
           style="fill:#f9d11f;fill-opacity:1;fill-rule:nonzero;stroke:none"
           id="path6908" /><path
           d="m 237.667,326.674 h -56.233 v 56.264 h 56.233 z"
           style="fill:#f9d11f;fill-opacity:1;fill-rule:nonzero;stroke:none"
           id="path6910" /><path
           d="m 330.567,326.674 h -56.233 v 56.264 h 56.233 z"
           style="fill:#f9d11f;fill-opacity:1;fill-rule:nonzero;stroke:none"
           id="path6912" /><path
           d="m 423.467,236.107 h -56.233 v 56.264 h 56.233 z"
           style="fill:#f9d11f;fill-opacity:1;fill-rule:nonzero;stroke:none"
           id="path6914" /><g
           id="g6916"
           transform="translate(309.4219,128.0488)"><path
             d="m 0,0 c 0,-64.333 -52.603,-119.687 -53.422,-120.549 l -0.009,-0.009 c 0,0 -53.43,55.716 -53.43,120.558 0,29.505 23.925,53.413 53.43,53.413 C -23.925,53.413 0,29.505 0,0"
             style="fill:#ff4656;fill-opacity:1;fill-rule:nonzero;stroke:none"
             id="path6918" /></g><g
           id="g6920"
           transform="translate(256,7.5)"><path
             d="m 0,0 c 0.5,0.862 32.766,56.216 32.766,120.549 0,29.505 -14.671,53.413 -32.775,53.413 29.506,0 53.431,-23.908 53.431,-53.413 C 53.422,56.216 0.819,0.862 0,0"
             style="fill:#d93c49;fill-opacity:1;fill-rule:nonzero;stroke:none"
             id="path6922" /></g><g
           id="g6924"
           transform="translate(276.7427,127.2891)"><path
             d="m 0,0 c 0,-11.453 -9.289,-20.742 -20.751,-20.742 -0.225,0 -0.457,0 -0.682,0.017 -11.143,0.354 -20.069,9.496 -20.069,20.725 0,11.229 8.926,20.372 20.069,20.726 0.225,0.017 0.457,0.017 0.682,0.017 C -9.289,20.743 0,11.454 0,0"
             style="fill:#ffffff;fill-opacity:1;fill-rule:nonzero;stroke:none"
             id="path6926" /></g><g
           id="g6928"
           transform="translate(276.7427,127.2891)"><path
             d="m 0,0 c 0,-11.453 -9.289,-20.742 -20.751,-20.742 -0.225,0 -0.457,0 -0.682,0.017 3.01,0.354 5.425,9.496 5.425,20.725 0,11.229 -2.415,20.372 -5.425,20.726 0.225,0.017 0.457,0.017 0.682,0.017 C -9.289,20.743 0,11.454 0,0"
             style="fill:#eef0f5;fill-opacity:1;fill-rule:nonzero;stroke:none"
             id="path6930" /></g><g
           id="g6932"
           transform="translate(78.603,404.5684)"><path
             d="M 0,0 -71.103,-40.055 -54.498,-69.527 177.397,61.105 409.292,-69.527 425.897,-40.055 177.397,99.932 30.51,17.187"
             style="fill:none;stroke:#000000;stroke-width:15;stroke-linecap:round;stroke-linejoin:round;stroke-miterlimit:10;stroke-dasharray:none;stroke-opacity:1"
             id="path6934" /></g><g
           id="g6936"
           transform="translate(51,108.4629)"><path
             d="M 0,0 V 241.729"
             style="fill:none;stroke:#000000;stroke-width:15;stroke-linecap:butt;stroke-linejoin:round;stroke-miterlimit:10;stroke-dasharray:none;stroke-opacity:1"
             id="path6938" /></g><g
           id="g6940"
           transform="translate(461,247.0391)"><path
             d="M 0,0 V -138.576"
             style="fill:none;stroke:#000000;stroke-width:15;stroke-linecap:round;stroke-linejoin:round;stroke-miterlimit:10;stroke-dasharray:none;stroke-opacity:1"
             id="path6942" /></g><g
           id="g6944"
           transform="translate(461,350.1914)"><path
             d="M 0,0 V -68.81"
             style="fill:none;stroke:#000000;stroke-width:15;stroke-linecap:round;stroke-linejoin:round;stroke-miterlimit:10;stroke-dasharray:none;stroke-opacity:1"
             id="path6946" /></g><g
           id="g6948"
           transform="translate(181.1592,74.6475)"><path
             d="M 0,0 H -150.159 V 33.815 H -7.374"
             style="fill:none;stroke:#000000;stroke-width:15;stroke-linecap:round;stroke-linejoin:round;stroke-miterlimit:10;stroke-dasharray:none;stroke-opacity:1"
             id="path6950" /></g><g
           id="g6952"
           transform="translate(337.9536,108.4629)"><path
             d="M 0,0 H 143.046 V -33.815 H -8.028"
             style="fill:none;stroke:#000000;stroke-width:15;stroke-linecap:round;stroke-linejoin:round;stroke-miterlimit:10;stroke-dasharray:none;stroke-opacity:1"
             id="path6954" /></g><path
           d="M 144.413,235.941 H 88.18 v 56.229 h 56.233 z"
           style="fill:none;stroke:#000000;stroke-width:15;stroke-linecap:round;stroke-linejoin:round;stroke-miterlimit:10;stroke-dasharray:none;stroke-opacity:1"
           id="path6956" /><g
           id="g6958"
           transform="translate(116.2959,292.1699)"><path
             d="M 0,0 V -14.481"
             style="fill:none;stroke:#000000;stroke-width:15;stroke-linecap:round;stroke-linejoin:round;stroke-miterlimit:10;stroke-dasharray:none;stroke-opacity:1"
             id="path6960" /></g><path
           d="M 237.313,235.941 H 181.08 v 56.229 h 56.233 z"
           style="fill:none;stroke:#000000;stroke-width:15;stroke-linecap:round;stroke-linejoin:round;stroke-miterlimit:10;stroke-dasharray:none;stroke-opacity:1"
           id="path6962" /><g
           id="g6964"
           transform="translate(209.1963,292.1699)"><path
             d="M 0,0 V -14.481"
             style="fill:none;stroke:#000000;stroke-width:15;stroke-linecap:round;stroke-linejoin:round;stroke-miterlimit:10;stroke-dasharray:none;stroke-opacity:1"
             id="path6966" /></g><path
           d="M 330.213,235.941 H 273.98 v 56.229 h 56.233 z"
           style="fill:none;stroke:#000000;stroke-width:15;stroke-linecap:round;stroke-linejoin:round;stroke-miterlimit:10;stroke-dasharray:none;stroke-opacity:1"
           id="path6968" /><g
           id="g6970"
           transform="translate(302.0962,292.1699)"><path
             d="M 0,0 V -14.481"
             style="fill:none;stroke:#000000;stroke-width:15;stroke-linecap:round;stroke-linejoin:round;stroke-miterlimit:10;stroke-dasharray:none;stroke-opacity:1"
             id="path6972" /></g><path
           d="M 423.113,235.941 H 366.88 v 56.229 h 56.233 z"
           style="fill:none;stroke:#000000;stroke-width:15;stroke-linecap:round;stroke-linejoin:round;stroke-miterlimit:10;stroke-dasharray:none;stroke-opacity:1"
           id="path6974" /><g
           id="g6976"
           transform="translate(394.9961,292.1699)"><path
             d="M 0,0 V -14.481"
             style="fill:none;stroke:#000000;stroke-width:15;stroke-linecap:round;stroke-linejoin:round;stroke-miterlimit:10;stroke-dasharray:none;stroke-opacity:1"
             id="path6978" /></g><path
           d="M 144.767,147.638 H 88.534 v 56.228 h 56.233 z"
           style="fill:none;stroke:#000000;stroke-width:15;stroke-linecap:round;stroke-linejoin:round;stroke-miterlimit:10;stroke-dasharray:none;stroke-opacity:1"
           id="path6980" /><g
           id="g6982"
           transform="translate(116.6499,203.8652)"><path
             d="M 0,0 V -14.48"
             style="fill:none;stroke:#000000;stroke-width:15;stroke-linecap:round;stroke-linejoin:round;stroke-miterlimit:10;stroke-dasharray:none;stroke-opacity:1"
             id="path6984" /></g><path
           d="m 423.467,147.638 h -56.233 v 56.228 h 56.233 z"
           style="fill:none;stroke:#000000;stroke-width:15;stroke-linecap:round;stroke-linejoin:round;stroke-miterlimit:10;stroke-dasharray:none;stroke-opacity:1"
           id="path6986" /><g
           id="g6988"
           transform="translate(395.3501,203.8652)"><path
             d="M 0,0 V -14.48"
             style="fill:none;stroke:#000000;stroke-width:15;stroke-linecap:round;stroke-linejoin:round;stroke-miterlimit:10;stroke-dasharray:none;stroke-opacity:1"
             id="path6990" /></g><path
           d="M 237.313,326.45 H 181.08 v 56.229 h 56.233 z"
           style="fill:none;stroke:#000000;stroke-width:15;stroke-linecap:round;stroke-linejoin:round;stroke-miterlimit:10;stroke-dasharray:none;stroke-opacity:1"
           id="path6992" /><g
           id="g6994"
           transform="translate(209.1963,382.6787)"><path
             d="M 0,0 V -14.481"
             style="fill:none;stroke:#000000;stroke-width:15;stroke-linecap:round;stroke-linejoin:round;stroke-miterlimit:10;stroke-dasharray:none;stroke-opacity:1"
             id="path6996" /></g><path
           d="M 330.213,326.45 H 273.98 v 56.229 h 56.233 z"
           style="fill:none;stroke:#000000;stroke-width:15;stroke-linecap:round;stroke-linejoin:round;stroke-miterlimit:10;stroke-dasharray:none;stroke-opacity:1"
           id="path6998" /><g
           id="g7000"
           transform="translate(302.0962,382.6787)"><path
             d="M 0,0 V -14.481"
             style="fill:none;stroke:#000000;stroke-width:15;stroke-linecap:round;stroke-linejoin:round;stroke-miterlimit:10;stroke-dasharray:none;stroke-opacity:1"
             id="path7002" /></g><g
           id="g7004"
           transform="translate(276.7451,127.2344)"><path
             d="m 0,0 c 0,-11.449 -9.288,-20.73 -20.745,-20.73 -11.458,0 -20.745,9.281 -20.745,20.73 0,11.448 9.287,20.729 20.745,20.729 C -9.288,20.729 0,11.448 0,0 Z"
             style="fill:none;stroke:#000000;stroke-width:15;stroke-linecap:round;stroke-linejoin:round;stroke-miterlimit:10;stroke-dasharray:none;stroke-opacity:1"
             id="path7006" /></g><g
           id="g7008"
           transform="translate(209.5801,85.8232)"><path
             d="m 0,0 c -4.254,13.224 -7.006,27.462 -7.006,42.169 0,29.485 23.92,53.387 53.426,53.387 29.506,0 53.426,-23.902 53.426,-53.387 0,-64.804 -53.426,-120.492 -53.426,-120.492 0,0 -17.988,18.75 -33.089,47.15"
             style="fill:none;stroke:#000000;stroke-width:15;stroke-linecap:round;stroke-linejoin:round;stroke-miterlimit:10;stroke-dasharray:none;stroke-opacity:1"
             id="path7010" /></g></g></g></g></svg>
