<?xml version="1.0" encoding="iso-8859-1"?>
<!-- Generator: Adobe Illustrator 21.0.0, SVG Export Plug-In . SVG Version: 6.00 Build 0)  -->
<svg version="1.1" id="Capa_1" xmlns="http://www.w3.org/2000/svg" xmlns:xlink="http://www.w3.org/1999/xlink" x="0px" y="0px"
	 viewBox="0 0 511.999 511.999" style="enable-background:new 0 0 511.999 511.999;" xml:space="preserve">
<path style="fill:#F3E8D7;" d="M439.599,7.499h-18.227H102.903H71.056l0,0l0,0c-17.588,0-31.847,14.258-31.847,31.847v325.661
	c0,13.616,11.038,24.655,24.655,24.655h39.039v100.259c0,3.491,2.395,6.526,5.791,7.338l29.443,7.036
	c1.153,0.276,2.354,0.276,3.507,0l33.48-8.001c1.153-0.275,2.355-0.275,3.508,0l33.475,8.001c1.153,0.276,2.355,0.276,3.508,0
	l33.476-8.001c1.153-0.276,2.355-0.276,3.508,0l33.48,8.001c1.153,0.276,2.354,0.276,3.507,0l33.481-8.001
	c1.153-0.275,2.354-0.275,3.507,0l33.483,8.001c1.153,0.276,2.354,0.276,3.507,0l33.482-8.001c1.153-0.275,2.354-0.276,3.507,0
	l33.487,8.001c1.153,0.275,2.354,0.275,3.507,0l29.449-7.037c3.396-0.812,5.791-3.847,5.791-7.338V40.687
	C472.787,22.358,457.928,7.499,439.599,7.499z"/>
<path style="fill:#4EAD4E;" d="M71.056,7.499L71.056,7.499c-17.589,0-31.847,14.258-31.847,31.847v325.661
	c0,13.616,11.038,24.655,24.655,24.655h39.039V39.346C102.903,21.758,88.644,7.499,71.056,7.499z"/>
<path style="fill:#DDD1C3;" d="M439.599,7.499h-18.227h-3.833v488.376l-9.37,2.239l25.871,6.182c1.153,0.275,2.354,0.275,3.507,0
	l29.449-7.037c3.396-0.812,5.791-3.847,5.791-7.338V40.687C472.787,22.358,457.928,7.499,439.599,7.499z"/>
<path d="M143.658,64.467c0-2.878,2.985-4.371,6.077-4.371h20.577c11.087,0,21.429,3.625,21.429,18.765
	c0,8.742-3.412,14.499-9.063,16.951c6.503,2.559,10.981,6.717,10.981,17.378v2.239c0,16.631-9.275,22.602-21.323,22.602h-22.602
	c-3.731,0-6.077-2.025-6.077-4.265V64.467H143.658z M157.411,90.375h11.94c5.757,0,8.529-3.731,8.529-9.169
	c0-5.544-3.198-8.955-8.636-8.955H157.41L157.411,90.375L157.411,90.375z M169.458,125.876c6.503,0,10.341-3.518,10.341-11.62
	v-1.706c0-8.315-3.838-11.301-10.341-11.301h-12.047v24.627C157.411,125.876,169.458,125.876,169.458,125.876z"/>
<path d="M203.572,64.361c0-2.985,3.412-4.265,6.93-4.265c3.412,0,6.93,1.279,6.93,4.265v69.299c0,2.879-3.518,4.371-6.93,4.371
	c-3.518,0-6.93-1.492-6.93-4.371V64.361z"/>
<path d="M236.301,138.031c-3.092,0-6.077-1.492-6.077-4.371V64.361c0-2.985,3.412-4.265,6.93-4.265c3.412,0,6.93,1.279,6.93,4.265
	v61.516h26.014c2.772,0,4.158,2.985,4.158,6.077c0,2.985-1.386,6.077-4.158,6.077L236.301,138.031L236.301,138.031z"/>
<path d="M287.9,138.031c-3.092,0-6.077-1.492-6.077-4.371V64.361c0-2.985,3.412-4.265,6.93-4.265c3.412,0,6.93,1.279,6.93,4.265
	v61.516h26.014c2.772,0,4.158,2.985,4.158,6.077c0,2.985-1.386,6.077-4.158,6.077L287.9,138.031L287.9,138.031z"/>
<path d="M395.042,137.924c-12.9-0.32-22.602-7.25-22.602-13.22c0-2.985,2.666-7.464,5.97-7.464c4.051,0,7.25,6.931,16.632,7.996
	V104.02c-9.702-3.625-20.683-7.782-20.683-21.429c0-13.54,10.021-19.404,20.683-20.79v-2.985c0-1.386,1.599-2.665,3.625-2.665
	c1.812,0,3.625,1.279,3.625,2.665v2.772c6.93,0.213,18.231,2.238,18.231,8.422c0,2.452-1.706,7.356-5.65,7.356
	c-2.985,0-5.438-3.411-12.581-3.944v18.764c9.489,3.519,20.15,8.316,20.15,22.815c0,13.113-8.209,20.683-20.15,22.602v3.306
	c0,1.386-1.813,2.665-3.625,2.665c-2.026,0-3.625-1.279-3.625-2.665V137.924z M395.895,89.841V73.743
	c-5.331,0.854-8.529,3.412-8.529,7.463C387.366,85.897,390.991,87.922,395.895,89.841z M401.438,106.58v18.551
	c4.691-0.959,7.996-3.731,7.996-8.742C409.435,111.165,406.023,108.606,401.438,106.58z"/>
<path d="M335.645,219.117H142.417c-4.142,0-7.5,3.357-7.5,7.5s3.358,7.5,7.5,7.5h193.228c4.142,0,7.5-3.357,7.5-7.5
	S339.786,219.117,335.645,219.117z"/>
<path d="M335.645,281.51H142.417c-4.142,0-7.5,3.357-7.5,7.5s3.358,7.5,7.5,7.5h193.228c4.142,0,7.5-3.357,7.5-7.5
	S339.786,281.51,335.645,281.51z"/>
<path d="M335.645,343.904H142.417c-4.142,0-7.5,3.357-7.5,7.5s3.358,7.5,7.5,7.5h193.228c4.142,0,7.5-3.357,7.5-7.5
	S339.786,343.904,335.645,343.904z"/>
<path d="M335.645,406.297H142.417c-4.142,0-7.5,3.357-7.5,7.5s3.358,7.5,7.5,7.5h193.228c4.142,0,7.5-3.357,7.5-7.5
	S339.786,406.297,335.645,406.297z"/>
<path d="M419.751,219.117h-48.616c-4.142,0-7.5,3.357-7.5,7.5s3.358,7.5,7.5,7.5h48.616c4.142,0,7.5-3.357,7.5-7.5
	S423.893,219.117,419.751,219.117z"/>
<path d="M419.751,281.51h-48.616c-4.142,0-7.5,3.357-7.5,7.5s3.358,7.5,7.5,7.5h48.616c4.142,0,7.5-3.357,7.5-7.5
	S423.893,281.51,419.751,281.51z"/>
<path d="M419.751,343.904h-48.616c-4.142,0-7.5,3.357-7.5,7.5s3.358,7.5,7.5,7.5h48.616c4.142,0,7.5-3.357,7.5-7.5
	S423.893,343.904,419.751,343.904z"/>
<path d="M439.599,0H71.056l0,0l0,0C49.36,0,31.709,17.651,31.709,39.346v325.661c0,17.73,14.424,32.154,32.155,32.154h3.807
	c4.142,0,7.5-3.357,7.5-7.5s-3.358-7.5-7.5-7.5h-3.807c-9.459,0-17.155-7.696-17.155-17.155V39.346
	c0-13.425,10.922-24.347,24.347-24.347S95.403,25.92,95.403,39.346V489.92c0,6.991,4.749,13.008,11.548,14.633l29.443,7.036
	c2.287,0.547,4.705,0.545,6.993,0l33.501-8.001l33.476,8.001c2.288,0.547,4.706,0.545,6.994,0l33.497-8.001l33.481,8.001
	c2.287,0.547,4.705,0.545,6.993,0l33.502-8.001l33.484,8.001c2.288,0.547,4.704,0.545,6.993,0l33.503-8.001l33.481,7.999
	c1.146,0.275,2.325,0.412,3.504,0.412c1.177,0,2.352-0.137,3.495-0.41l29.45-7.036c6.799-1.625,11.548-7.642,11.548-14.633V40.688
	C480.287,18.252,462.034,0,439.599,0z M465.253,489.965l-29.471,7.036L402.295,489c-2.287-0.548-4.705-0.548-6.993,0l-33.503,8.001
	L328.316,489c-2.288-0.547-4.705-0.547-6.993,0l-33.502,8.001L254.339,489c-2.288-0.547-4.706-0.545-6.992,0l-33.497,8.001
	L180.374,489c-1.144-0.273-2.319-0.409-3.496-0.409c-1.176,0-2.353,0.137-3.497,0.409l-33.501,8.001l-29.477-7.08V39.346
	c0-0.631-0.018-1.258-0.048-1.883c-0.01-0.203-0.026-0.404-0.039-0.606c-0.026-0.422-0.057-0.843-0.096-1.262
	c-0.022-0.233-0.049-0.464-0.075-0.695c-0.044-0.389-0.093-0.777-0.148-1.163c-0.034-0.234-0.068-0.467-0.106-0.699
	c-0.063-0.39-0.134-0.778-0.208-1.165c-0.042-0.216-0.081-0.433-0.127-0.648c-0.093-0.443-0.197-0.883-0.305-1.32
	c-0.037-0.15-0.069-0.302-0.108-0.452c-0.151-0.582-0.316-1.159-0.493-1.731c-0.045-0.144-0.095-0.285-0.142-0.428
	c-0.138-0.428-0.281-0.855-0.433-1.277c-0.074-0.205-0.154-0.408-0.231-0.611c-0.136-0.357-0.275-0.713-0.421-1.065
	c-0.089-0.216-0.181-0.43-0.274-0.643c-0.148-0.341-0.302-0.679-0.46-1.015c-0.097-0.207-0.194-0.414-0.295-0.619
	c-0.174-0.355-0.356-0.705-0.541-1.054c-0.093-0.175-0.182-0.352-0.277-0.526c-0.266-0.485-0.541-0.963-0.826-1.435
	c-0.02-0.032-0.037-0.066-0.057-0.098c-0.305-0.501-0.623-0.994-0.95-1.48c-0.107-0.159-0.219-0.314-0.328-0.471
	c-0.228-0.328-0.458-0.655-0.695-0.976c-0.131-0.178-0.266-0.353-0.4-0.528c-0.126-0.165-0.247-0.333-0.375-0.495h337.654
	c14.165,0,25.689,11.524,25.689,25.689L465.253,489.965z"/>
<g>
</g>
<g>
</g>
<g>
</g>
<g>
</g>
<g>
</g>
<g>
</g>
<g>
</g>
<g>
</g>
<g>
</g>
<g>
</g>
<g>
</g>
<g>
</g>
<g>
</g>
<g>
</g>
<g>
</g>
</svg>
